<svg xmlns="http://www.w3.org/2000/svg" width="64" height="64" fill="none" viewBox="0 0 64 64"><rect width="64" height="64" fill="#fff"/><path fill="#26A69A" fill-rule="evenodd" d="M32 64C49.6731 64 64 49.6731 64 32C64 14.3269 49.6731 0 32 0C14.3269 0 0 14.3269 0 32C0 49.6731 14.3269 64 32 64Z" clip-rule="evenodd"/><path fill="#00E5FF" fill-rule="evenodd" d="M53.9068 55.3258C48.1816 60.7049 40.4756 64 32 64C23.6259 64 16.0032 60.7834 10.2998 55.5184C10.3509 55.3648 10.4036 55.2106 10.4577 55.0562C11.5001 52.0848 11.7463 49.8993 17.1911 47.7673C22.6358 45.6354 39.7132 45.5849 45.9745 47.5284C52.2358 49.4718 52.8842 52.5158 53.7652 54.9177C53.8138 55.0503 53.861 55.1866 53.9068 55.3258V55.3258Z" clip-rule="evenodd"/><path fill="#fff" fill-rule="evenodd" d="M21.181 46.8101C27.255 45.8734 36.8192 45.8915 42.8177 46.837C42.629 50.8802 37.8579 54.1176 31.9999 54.1176C26.129 54.1176 21.3498 50.8659 21.181 46.8101H21.181Z" clip-rule="evenodd"/><path fill="#FFB74D" fill-rule="evenodd" d="M23.0589 46.5624C28.4324 45.96 35.6121 45.9719 40.9412 46.5839C40.9412 46.5853 40.9412 46.5868 40.9412 46.5882C40.9412 49.9669 36.9381 52.7059 32 52.7059C27.0619 52.7059 23.0588 49.9669 23.0588 46.5882C23.0588 46.5796 23.0589 46.571 23.0589 46.5624V46.5624Z" clip-rule="evenodd"/><path fill="#FFB74D" fill-rule="evenodd" d="M20.6246 25.0909C21.9552 19.0453 26.5439 14.5882 32.0001 14.5882C37.4733 14.5882 42.0736 19.0733 43.3879 25.1477C43.5488 25.0748 43.7332 25.0448 43.945 25.0642C45.221 25.181 45.2045 26.8664 45.0233 28.9376C44.8445 30.9817 44.0858 32.5902 43.3194 32.5668C42.3081 36.8446 39.6582 40.2955 36.2353 41.881V47.0603C36.2353 49.3985 34.3397 51.2941 32.0001 51.2941C29.661 51.2941 27.7648 49.4017 27.7648 47.0603V41.881C24.3354 40.2925 21.682 36.8315 20.675 32.5426C19.9733 32.3342 19.3165 30.8208 19.1517 28.9376C18.9705 26.8664 18.9541 25.181 20.23 25.0642C20.3738 25.0511 20.5049 25.0606 20.6246 25.0909V25.0909Z" clip-rule="evenodd"/><path fill="#fff" fill-rule="evenodd" d="M32.9838 26.8251C32.9712 26.8241 32.9584 26.8235 32.9455 26.8235H31.0545C31.0416 26.8235 31.0289 26.8241 31.0162 26.8251C30.7236 25.228 28.9579 24 26.8236 24C24.4845 24 22.5883 25.4748 22.5883 27.2941C22.5883 29.1134 24.4845 30.5882 26.8236 30.5882C28.9579 30.5882 30.7235 29.3603 31.0162 27.7632C31.0289 27.7642 31.0416 27.7647 31.0545 27.7647H32.9455C32.9584 27.7647 32.9712 27.7642 32.9838 27.7631C33.2765 29.3603 35.0421 30.5882 37.1765 30.5882C39.5156 30.5882 41.4118 29.1134 41.4118 27.2941C41.4118 25.4748 39.5156 24 37.1765 24C35.0421 24 33.2765 25.2279 32.9838 26.8251V26.8251Z" clip-rule="evenodd"/><path fill="#37474F" fill-rule="evenodd" d="M26.8235 29.647C28.6428 29.647 30.1177 28.5936 30.1177 27.2941 30.1177 25.9946 28.6428 24.9412 26.8235 24.9412 25.0042 24.9412 23.5294 25.9946 23.5294 27.2941 23.5294 28.5936 25.0042 29.647 26.8235 29.647V29.647 29.647zM37.1764 29.647C38.9957 29.647 40.4706 28.5936 40.4706 27.2941 40.4706 25.9946 38.9957 24.9412 37.1764 24.9412 35.3572 24.9412 33.8823 25.9946 33.8823 27.2941 33.8823 28.5936 35.3572 29.647 37.1764 29.647V29.647 29.647z" clip-rule="evenodd"/><path fill="#162827" fill-rule="evenodd" d="M23.6215 13.6002C19.0552 17.7194 19.7436 25.193 19.7436 25.193C19.7436 25.193 21.8645 24.4875 21.9093 28.7137C22.3228 28.485 22.8109 27.0301 23.0131 26.1267C27.1092 24.2709 27.816 21.7219 28.2156 19.986C29.8364 26.2769 40.59 26.2085 41.064 26.1497C41.0399 26.7331 41.9041 28.3704 42.3932 28.6895C42.4124 24.6165 44.141 25.1381 44.141 25.1381C44.141 25.1381 44.8342 16.6492 38.7169 12.8044C38.8172 12.5348 39.3882 11.402 41.9361 11.2717C38.1989 9.40993 35.0983 11.2466 35.0983 11.2466C35.0983 11.2466 36.4392 8.13523 39.5079 8.00529C35.0713 7.54562 32.0797 8.55291 30.0349 10.8633C31.037 6.792 32.8489 6.50828 34.6663 5.48691C27.2938 6.96356 24.2774 12.2579 23.6215 13.6002V13.6002Z" clip-rule="evenodd"/></svg>